<?xml version="1.0" encoding="UTF-8" standalone="no"?>
<svg
   xmlns:dc="http://purl.org/dc/elements/1.1/"
   xmlns:cc="http://creativecommons.org/ns#"
   xmlns:rdf="http://www.w3.org/1999/02/22-rdf-syntax-ns#"
   xmlns:svg="http://www.w3.org/2000/svg"
   xmlns="http://www.w3.org/2000/svg"
   xmlns:sodipodi="http://sodipodi.sourceforge.net/DTD/sodipodi-0.dtd"
   xmlns:inkscape="http://www.inkscape.org/namespaces/inkscape"
   viewBox="0 0 512.00001 512"
   version="1.1"
   id="svg34"
   sodipodi:docname="logo.svg"
   width="128"
   height="128"
   inkscape:version="0.92.2 (5c3e80d, 2017-08-06)">
  <metadata
     id="metadata40">
    <rdf:RDF>
      <cc:Work
         rdf:about="">
        <dc:format>image/svg+xml</dc:format>
        <dc:type
           rdf:resource="http://purl.org/dc/dcmitype/StillImage" />
        <dc:title></dc:title>
      </cc:Work>
    </rdf:RDF>
  </metadata>
  <defs
     id="defs38" />
  <sodipodi:namedview
     pagecolor="#ffffff"
     bordercolor="#666666"
     borderopacity="1"
     objecttolerance="10"
     gridtolerance="10"
     guidetolerance="10"
     inkscape:pageopacity="0"
     inkscape:pageshadow="2"
     inkscape:window-width="1298"
     inkscape:window-height="861"
     id="namedview36"
     showgrid="false"
     fit-margin-top="0"
     fit-margin-left="0"
     fit-margin-right="0"
     fit-margin-bottom="0"
     inkscape:zoom="1.84375"
     inkscape:cx="-11.850437"
     inkscape:cy="22.760618"
     inkscape:window-x="0"
     inkscape:window-y="27"
     inkscape:window-maximized="0"
     inkscape:current-layer="svg34" />
  <style
     id="style2">.icon-canvas-transparent{opacity:0;fill:#f6f6f6}.icon-white{fill:#fff}.icon-visualstudio-online{fill:#007acc}.graph-lightgrey{fill:#dfdfdf}.st0{fill:#f6f6f6}.st1{fill:#656565}.st2{fill:#bfbfbf}.st3{fill:#fff}.st4{fill:url(#path1948_1_)}.st5{fill:url(#path1950_1_)}</style>
  <path
     class="icon-canvas-transparent"
     d="M 506.44068,504 H 8.0000001 V 5.5593179 H 506.44068 Z"
     id="canvas"
     inkscape:connector-curvature="0"
     style="opacity:0;fill:#f6f6f6;stroke-width:15.57627106" />
  <g
     id="iconBg"
     transform="matrix(15.576271,0,0,15.576271,8.0000001,5.5593179)">
    <path
       class="graph-lightgrey"
       d="M 29,7 H 3 V 5 h 26 z"
       id="path5"
       inkscape:connector-curvature="0"
       style="fill:#dfdfdf" />
    <path
       class="icon-visualstudio-online"
       d="M 30,5 H 2 V 3 h 28 z"
       id="path7"
       inkscape:connector-curvature="0"
       style="fill:#007acc" />
    <path
       class="icon-white"
       d="M 29.141,4 29.57,4.429 29.43,4.571 29,4.141 28.57,4.571 28.43,4.429 28.859,4 28.43,3.571 28.571,3.429 29,3.859 29.43,3.429 29.571,3.571 Z M 27.6,3.4 h -1.2 v 1.2 h 1.2 z m -1,0.2 h 0.8 v 0.8 h -0.8 z m -1.139,0.8 h -1 v 0.2 h 1 z"
       id="path9"
       inkscape:connector-curvature="0"
       style="fill:#ffffff" />
    <path
       class="st0"
       d="M 3,7 H 29 V 26 H 3 Z"
       id="path11"
       inkscape:connector-curvature="0"
       style="fill:#f6f6f6" />
    <path
       class="st1"
       d="M 29,5 V 26 H 3 V 5 H 2 V 27 H 30 V 5 Z"
       id="path13"
       inkscape:connector-curvature="0"
       style="fill:#656565" />
    <path
       class="st1"
       d="m 4,5.75 h 2 v 0.5 H 4 Z"
       id="path15"
       inkscape:connector-curvature="0"
       style="fill:#656565" />
  </g>
  <path
     class="st2"
     d="M 194.91526,176.8983 H 85.881357 V 161.32203 H 194.91526 Z M 85.881357,285.9322 v 15.57627 H 257.22034 V 285.9322 Z m 0,-62.30508 v 15.57627 H 257.22034 v -15.57627 z"
     id="iconFg"
     inkscape:connector-curvature="0"
     style="fill:#bfbfbf;stroke-width:15.57627106" />
  <g
     id="colorImportance"
     transform="matrix(15.576271,0,0,15.576271,8.0000001,5.5593179)">
    <path
       class="st3"
       d="M 31.618,18.912 C 30.984,16.356 29.49,16 28.349,16 H 27 V 14.303 C 27,12.649 25.706,11.366 23.89,11.063 23.088,10.93 22.273,11 21.353,11 H 21.35 C 20.529,11 19.782,10.937 19.055,11.065 16.834,11.458 16,12.298 16,14.303 V 16 h -0.868 c -1.885,0 -3.394,1.042 -3.845,2.924 -0.469,1.946 -0.469,3.022 0,4.967 C 11.76,25.859 13.005,27 14.703,27 H 16 v 1.313 c 0,1.531 1.029,2.732 2.946,3.296 0.896,0.263 1.662,0.391 2.492,0.391 0.838,0 1.661,-0.128 2.565,-0.39 C 26.632,30.85 27,29.218 27,28.313 V 27 h 1.349 c 2.246,0 2.897,-1.884 3.247,-2.937 0.532,-1.592 0.538,-3.079 0.022,-5.151 z"
       id="path19"
       inkscape:connector-curvature="0"
       style="fill:#ffffff" />
    <linearGradient
       id="path1948_1_"
       gradientUnits="userSpaceOnUse"
       x1="522.20502"
       y1="-288.668"
       x2="540.90198"
       y2="-304.754"
       gradientTransform="matrix(0.5625,0,0,-0.568,-282.272,-151.69)">
      <stop
         offset="0"
         stop-color="#5a9fd4"
         id="stop21" />
      <stop
         offset="1"
         stop-color="#306998"
         id="stop23" />
    </linearGradient>
    <path
       id="path1948_6_"
       class="st4"
       d="m 21.354,11.725 c -0.786,0.004 -1.537,0.071 -2.197,0.188 -1.946,0.344 -2.299,1.063 -2.299,2.39 v 1.753 h 4.598 v 0.584 h -6.324 c -1.336,0 -2.507,0.803 -2.873,2.331 -0.422,1.751 -0.441,2.844 0,4.673 0.327,1.361 1.107,2.331 2.444,2.331 h 1.581 v -2.101 c 0,-1.518 1.313,-2.857 2.873,-2.857 h 4.593 c 1.278,0 2.299,-1.053 2.299,-2.337 v -4.379 c 0,-1.246 -1.051,-2.182 -2.299,-2.39 -0.79,-0.13 -1.61,-0.189 -2.396,-0.186 z m -2.486,1.41 c 0.475,0 0.863,0.394 0.863,0.879 a 0.87,0.87 0 0 1 -0.863,0.874 0.868,0.868 0 0 1 -0.863,-0.874 c 0,-0.485 0.386,-0.879 0.863,-0.879 z"
       inkscape:connector-curvature="0"
       style="fill:url(#path1948_1_)" />
    <linearGradient
       id="path1950_1_"
       gradientUnits="userSpaceOnUse"
       x1="548.13"
       y1="-314.48901"
       x2="541.45398"
       y2="-305.043"
       gradientTransform="matrix(0.5625,0,0,-0.568,-282.272,-151.69)">
      <stop
         offset="0"
         stop-color="#ffd43b"
         id="stop27" />
      <stop
         offset="1"
         stop-color="#ffe873"
         id="stop29" />
    </linearGradient>
    <path
       id="path1950_6_"
       class="st5"
       d="m 26.623,16.64 v 2.042 c 0,1.583 -1.342,2.915 -2.873,2.915 h -4.593 c -1.258,0 -2.299,1.077 -2.299,2.337 v 4.379 c 0,1.246 1.084,1.979 2.299,2.337 1.456,0.428 2.851,0.505 4.593,0 1.158,-0.335 2.299,-1.01 2.299,-2.337 V 26.56 h -4.593 v -0.584 h 6.892 c 1.336,0 1.834,-0.932 2.299,-2.331 0.48,-1.44 0.46,-2.826 0,-4.673 -0.33,-1.33 -0.961,-2.331 -2.299,-2.331 h -1.725 z m -2.584,11.089 c 0.477,0 0.863,0.391 0.863,0.874 a 0.871,0.871 0 0 1 -0.863,0.879 0.872,0.872 0 0 1 -0.863,-0.879 0.87,0.87 0 0 1 0.863,-0.874 z"
       inkscape:connector-curvature="0"
       style="fill:url(#path1950_1_)" />
  </g>
</svg>
